# xmcd
# 
# Track frame offsets:
#     150
#     16700
#     19583
#     43326
#     61879
#     84104
#     101637
#     121580
#     137392
#     159282
#     175286
# 
# Disc length: 2659
# 
# Revision: 0
# Processed by: cddbd v1.5.2PL0 Copyright (c) Steve Scherf et al.
# Submitted via: BonkEnc v1.0.6
# 
DISCID=740a610b
DTITLE=一青窈 - 一青想
DYEAR=2004
DGENRE=JPop
TTITLE0=今日わずらい
TTITLE1=INTERLUDE -映画「珈琲時光」より-
TTITLE2=一思案（ひとしあん）
TTITLE3=いろはもみじ
TTITLE4=面影モダン
TTITLE5=うやむや
TTITLE6=金魚すくい
TTITLE7=江戸ポルカ
TTITLE8=大家（ダージャー）
TTITLE9=夢なかば
TTITLE10=ハナミズキ
EXTD=YEAR: 2004
EXTT0=
EXTT1=
EXTT2=
EXTT3=
EXTT4=
EXTT5=
EXTT6=
EXTT7=
EXTT8=
EXTT9=
EXTT10=
PLAYORDER=
